<?xml version="1.0" encoding="utf-8"?>
<!-- Generator: Adobe Illustrator 27.6.1, SVG Export Plug-In . SVG Version: 6.00 Build 0)  -->
<svg version="1.1" id="OBJECT" xmlns="http://www.w3.org/2000/svg" xmlns:xlink="http://www.w3.org/1999/xlink" x="0px" y="0px"
	 viewBox="0 0 30 30" style="enable-background:new 0 0 30 30;" xml:space="preserve">
<style type="text/css">
	.st0{fill-rule:evenodd;clip-rule:evenodd;fill:#FFFFFF;}
</style>
<path class="st0" d="M3.2,12.1c0-5.1,4.2-9.2,9.3-9.3c5.1,0,9.2,4.1,9.2,9.2c0,0.8-0.1,1.6-0.3,2.3c-0.1,0.5,0,1,0.4,1.4l1.5,1.4
	l-2.8,2.8l-2.5,2.5l-0.3,0.3l-1.5-1.5c-0.4-0.4-0.9-0.5-1.3-0.4c-0.7,0.2-1.5,0.3-2.3,0.3C7.3,21.2,3.2,17.2,3.2,12.1z M15.8,24.9
	c0.7,0.6,1.7,0.8,2.5,0.5l2.4,2.1l0.4,0.4c1.4,1.3,3.5,1.7,5.3,1c1.3-0.5,2.3-1.5,2.9-2.8c0.7-1.8,0.4-3.9-0.9-5.3l-1-1.1l-1.4-1.6
	c0.3-0.8,0.1-1.8-0.5-2.5c0,0-0.1-0.1-0.1-0.1l-1-1c0.1-0.7,0.2-1.5,0.2-2.2c0-6.6-5.3-12-12-12C5.8,0,0.5,5.4,0.4,12.1
	c0,6.6,5.3,12,12,12c0.8,0,1.5-0.1,2.2-0.2l1,1C15.7,24.9,15.7,24.9,15.8,24.9z M25.3,26.2c-0.6,0.2-1.2,0.2-1.8,0l2.7-3.6
	c0.5,0.7,0.6,1.5,0.3,2.3C26.4,25.5,25.9,26,25.3,26.2z M20.5,23.7l1.3,1.2l3-4.1l-1.1-1.3L20.5,23.7z"/>
</svg>
