<?xml version="1.0" encoding="utf-8"?>
<!-- Generator: Adobe Illustrator 27.6.1, SVG Export Plug-In . SVG Version: 6.00 Build 0)  -->
<svg version="1.1" id="OBJECT" xmlns="http://www.w3.org/2000/svg" xmlns:xlink="http://www.w3.org/1999/xlink" x="0px" y="0px"
	 viewBox="0 0 30 30" style="enable-background:new 0 0 30 30;" xml:space="preserve">
<style type="text/css">
	.st0{fill:#FFFFFF;}
</style>
<g id="Layer_7">
	<path class="st0" d="M28.9,0H1.1C0.5,0,0,0.5,0,1.1V20c0,1.4,1.1,2.5,2.5,2.5h0h9.3v5.4H5.7c-0.6,0-1.1,0.5-1.1,1.1
		c0,0.6,0.5,1.1,1.1,1.1h18.6c0.6,0,1.1-0.5,1.1-1.1c0-0.6-0.5-1.1-1.1-1.1h-6.1v-5.4h9.3c1.4,0,2.5-1.1,2.5-2.5l0,0V1.1
		C30,0.5,29.5,0,28.9,0z M27.9,2.1v13.1C27.5,15.1,27,15,26.6,15H3.4c-0.4,0-0.9,0.1-1.3,0.2V2.1H27.9z M16.1,27.9h-2.1v-5.4h2.1
		V27.9z M17.1,20.4H3.4c-0.7,0-1.3-0.6-1.3-1.3l0,0v-0.7c0-0.7,0.6-1.3,1.3-1.3l0,0h23.2c0.7,0,1.3,0.6,1.3,1.3l0,0v0.7
		c0,0.7-0.6,1.3-1.3,1.3l0,0H17.1z"/>
	<path class="st0" d="M7.7,10.3l6.2-3.7v3.9c0,0.4,0.2,0.8,0.6,1c0.1,0.1,0.3,0.1,0.5,0.1c0.2,0,0.5-0.1,0.6-0.2l6.7-5.1
		c0.5-0.4,0.6-1,0.2-1.5c-0.1-0.2-0.3-0.3-0.6-0.4L20.4,4c-0.6-0.1-1.2,0.2-1.3,0.8c-0.1,0.4,0,0.8,0.3,1.1l-3.3,2.5V4.7
		c0-0.4-0.2-0.7-0.5-0.9c-0.3-0.2-0.7-0.2-1.1,0L6.6,8.5c-0.5,0.3-0.6,1-0.2,1.5C6.7,10.4,7.3,10.6,7.7,10.3L7.7,10.3z"/>
</g>
</svg>
