<?xml version="1.0" encoding="utf-8"?>
<!-- Generator: Adobe Illustrator 27.6.1, SVG Export Plug-In . SVG Version: 6.00 Build 0)  -->
<svg version="1.1" id="OBJECT" xmlns="http://www.w3.org/2000/svg" xmlns:xlink="http://www.w3.org/1999/xlink" x="0px" y="0px"
	 viewBox="0 0 30 30" style="enable-background:new 0 0 30 30;" xml:space="preserve">
<style type="text/css">
	.st0{fill:#FFFFFF;}
</style>
<path class="st0" d="M15,9c-3.3,0-6,2.7-6,6c0,2.9,2.1,5.4,5,5.9v-1.3c-1.6-1-2.5-2.8-2.5-4.6c-0.1-2.1,1.2-4.1,3.1-4.9
	c0.2-0.1,0.5-0.1,0.7,0c2,0.8,3.2,2.8,3.1,4.9c0,1.9-0.9,3.6-2.5,4.6v1.3c3.3-0.6,5.4-3.7,4.9-6.9C20.4,11.1,17.9,9,15,9z"/>
<ellipse class="st0" cx="15" cy="15" rx="1.5" ry="2.9"/>
<path class="st0" d="M27,11h-1.8l-0.2-0.4l1.2-1.2c1.2-1.2,1.2-3.1,0-4.2l-1.4-1.4c-1.2-1.1-3.1-1.1-4.2,0l-1.2,1.2L19,4.8V3
	c0-1.7-1.3-3-3-3h-2c-1.7,0-3,1.3-3,3v1.8l-0.4,0.2L9.3,3.7c-1.2-1.1-3.1-1.1-4.2,0L3.7,5.1c-1.2,1.2-1.2,3.1,0,4.2l1.2,1.2L4.7,11
	H3c-1.7,0-3,1.3-3,3v2c0,1.7,1.3,3,3,3h1.8l0.2,0.4l-1.2,1.2c-1.2,1.2-1.2,3.1,0,4.2l1.4,1.4c1.2,1.1,3.1,1.1,4.2,0l1.2-1.2l0.4,0.2
	V27c0,1.7,1.3,3,3,3h2c1.7,0,3-1.3,3-3v-1.8l0.4-0.2l1.2,1.2c1.2,1.1,3.1,1.1,4.2,0l1.4-1.4c1.2-1.2,1.2-3.1,0-4.2l-1.2-1.2l0.2-0.4
	H27c1.7,0,3-1.3,3-3v-2C30,12.3,28.7,11,27,11z M15,23c-4.4,0-8-3.6-8-8s3.6-8,8-8s8,3.6,8,8S19.4,23,15,23z"/>
</svg>
