<?xml version="1.0" encoding="utf-8"?>
<!-- Generator: Adobe Illustrator 27.6.1, SVG Export Plug-In . SVG Version: 6.00 Build 0)  -->
<svg version="1.1" id="OBJECT" xmlns="http://www.w3.org/2000/svg" xmlns:xlink="http://www.w3.org/1999/xlink" x="0px" y="0px"
	 viewBox="0 0 30 30" style="enable-background:new 0 0 30 30;" xml:space="preserve">
<style type="text/css">
	.st0{fill:#FFFFFF;}
</style>
<g>
	<path class="st0" d="M16.1,16.6l-1.6-0.2c-0.2,0-0.4-0.2-0.5-0.4c0,0,0,0,0,0c-0.1-0.2-0.1-0.4,0.1-0.6l1-1.2
		c0.2-0.2,0.2-0.6,0-0.8l-1.8-1.8c-0.2-0.2-0.5-0.2-0.8,0l-1.2,1c-0.2,0.1-0.4,0.2-0.6,0.1c0,0,0,0,0,0c-0.2-0.1-0.3-0.3-0.4-0.5
		l-0.2-1.6c0-0.3-0.3-0.5-0.6-0.5H7c-0.3,0-0.5,0.2-0.6,0.5l-0.2,1.6c0,0.2-0.2,0.4-0.4,0.5c0,0,0,0,0,0c-0.2,0.1-0.4,0.1-0.6-0.1
		l-1.2-1c-0.2-0.2-0.6-0.2-0.8,0l-1.8,1.8c-0.2,0.2-0.2,0.5,0,0.8l1,1.2c0.1,0.2,0.2,0.4,0.1,0.6c0,0,0,0,0,0
		c-0.1,0.2-0.3,0.3-0.5,0.4l-1.6,0.2c-0.3,0-0.5,0.3-0.5,0.6v2.6c0,0.3,0.2,0.5,0.5,0.6l1.6,0.2c0.2,0,0.4,0.2,0.5,0.4c0,0,0,0,0,0
		c0.1,0.2,0.1,0.4-0.1,0.6l-1,1.2c-0.2,0.2-0.2,0.6,0,0.8l1.8,1.8c0.2,0.2,0.5,0.2,0.8,0l1.2-1c0.2-0.1,0.4-0.2,0.6-0.1c0,0,0,0,0,0
		c0.2,0.1,0.3,0.3,0.4,0.5l0.2,1.6c0,0.3,0.3,0.5,0.6,0.5h2.6c0.3,0,0.5-0.2,0.6-0.5l0.2-1.6c0-0.2,0.2-0.4,0.4-0.5c0,0,0,0,0,0
		c0.2-0.1,0.4-0.1,0.6,0.1l1.2,1c0.2,0.2,0.6,0.2,0.8,0l1.8-1.8c0.2-0.2,0.2-0.5,0-0.8l-1-1.2c-0.1-0.2-0.2-0.4-0.1-0.6c0,0,0,0,0,0
		c0.1-0.2,0.3-0.3,0.5-0.4l1.6-0.2c0.3,0,0.5-0.3,0.5-0.6v-2.6C16.7,16.9,16.4,16.6,16.1,16.6z M8.3,21c-1.4,0-2.6-1.2-2.6-2.6
		s1.2-2.6,2.6-2.6s2.6,1.2,2.6,2.6C10.9,19.9,9.8,21,8.3,21z"/>
	<path class="st0" d="M29.6,14l-1.1-0.8c-0.2-0.1-0.3-0.3-0.3-0.6c0,0,0,0,0,0c0-0.2,0.1-0.4,0.3-0.6l1.1-0.8
		c0.2-0.2,0.3-0.5,0.2-0.8l-0.5-1.1c-0.1-0.3-0.4-0.5-0.7-0.4L27.3,9c-0.2,0-0.4-0.1-0.6-0.2c0,0,0,0,0,0c-0.2-0.2-0.2-0.4-0.2-0.6
		l0.2-1.3c0-0.3-0.1-0.6-0.4-0.7l-1.1-0.5c-0.3-0.1-0.6,0-0.8,0.2l-0.8,1.1c-0.1,0.2-0.3,0.3-0.6,0.3c0,0,0,0,0,0
		c-0.2,0-0.4-0.1-0.6-0.3l-0.8-1.1c-0.2-0.2-0.5-0.3-0.8-0.2l-1.1,0.5c-0.3,0.1-0.5,0.4-0.4,0.7l0.2,1.3c0,0.2-0.1,0.4-0.2,0.6
		c0,0,0,0,0,0C18.9,8.9,18.7,9,18.5,9l-1.3-0.2c-0.3,0-0.6,0.1-0.7,0.4l-0.5,1.1c-0.1,0.3,0,0.6,0.2,0.8l1.1,0.8
		c0.2,0.1,0.3,0.3,0.3,0.6c0,0,0,0,0,0c0,0.2-0.1,0.4-0.3,0.6L16.1,14c-0.2,0.2-0.3,0.5-0.2,0.8l0.5,1.1c0.1,0.3,0.4,0.5,0.7,0.4
		l1.3-0.2c0.2,0,0.4,0.1,0.6,0.2c0,0,0,0,0,0c0.2,0.2,0.2,0.4,0.2,0.6l-0.2,1.3c0,0.3,0.1,0.6,0.4,0.7l1.1,0.5
		c0.3,0.1,0.6,0,0.8-0.2l0.8-1.1c0.1-0.2,0.3-0.3,0.6-0.3c0,0,0,0,0,0c0.2,0,0.4,0.1,0.6,0.3l0.8,1.1c0.2,0.2,0.5,0.3,0.8,0.2
		l1.1-0.5c0.3-0.1,0.5-0.4,0.4-0.7L26.5,17c0-0.2,0.1-0.4,0.2-0.6c0,0,0,0,0,0c0.2-0.2,0.4-0.2,0.6-0.2l1.3,0.2
		c0.3,0,0.6-0.1,0.7-0.4l0.5-1.1C29.9,14.5,29.8,14.2,29.6,14z M23.5,14.6c-1.1,0.4-2.3-0.1-2.8-1.1s0.1-2.3,1.1-2.8
		c1.1-0.4,2.3,0.1,2.8,1.1C25.1,12.9,24.6,14.1,23.5,14.6z"/>
</g>
</svg>
