<?xml version="1.0" encoding="utf-8"?>
<!-- Generator: Adobe Illustrator 27.6.1, SVG Export Plug-In . SVG Version: 6.00 Build 0)  -->
<svg version="1.1" id="OBJECT" xmlns="http://www.w3.org/2000/svg" xmlns:xlink="http://www.w3.org/1999/xlink" x="0px" y="0px"
	 viewBox="0 0 30 30" style="enable-background:new 0 0 30 30;" xml:space="preserve">
<style type="text/css">
	.st0{fill:#FFFFFF;}
</style>
<path class="st0" d="M30,4c0-2.2-1.8-4-4-4c-1.7,0-3.2,1.1-3.8,2.7H19c-0.7-2.1-3-3.2-5.1-2.5c-1.2,0.4-2.1,1.3-2.5,2.5H8.3
	c-0.7-2.1-3-3.2-5.1-2.5S0,3.3,0.7,5.4C1.1,6.5,2,7.4,3.1,7.8V11c-2.1,0.7-3.2,3-2.5,5.1c0.4,1.2,1.3,2.1,2.5,2.5v3.2
	c-2.1,0.7-3.2,3-2.5,5.1s3,3.2,5.1,2.5C7,28.9,7.9,28,8.3,26.9h3.2c0.7,2.1,3,3.2,5.1,2.5c1.2-0.4,2.1-1.3,2.5-2.5h3.2
	c0.7,2.1,3,3.2,5.1,2.5s3.2-3,2.5-5.1c-0.4-1.2-1.3-2.1-2.5-2.5v-3.2c2.1-0.7,3.2-3,2.5-5.1c-0.4-1.2-1.3-2.1-2.5-2.5V7.8
	C28.9,7.2,30,5.7,30,4z M26,2.7c0.7,0,1.3,0.6,1.3,1.3S26.7,5.4,26,5.4S24.6,4.8,24.6,4S25.2,2.7,26,2.7z M22,14.8
	c0,1.7,1.1,3.2,2.7,3.8v3.2c-1.1,0.4-2,1.3-2.4,2.4H19c-0.7-2.1-3-3.2-5.1-2.5c-1.2,0.4-2.1,1.3-2.5,2.5H8.3c-0.4-1.1-1.3-2-2.4-2.4
	v-3.2c2.1-0.7,3.2-3,2.5-5.1C7.9,12.3,7,11.4,5.8,11V7.8c1.1-0.4,2-1.3,2.4-2.4h3.2c0.7,2.1,3,3.2,5.1,2.5c1.2-0.4,2.1-1.3,2.5-2.5
	h3.2c0.4,1.1,1.3,2,2.4,2.4V11C23,11.6,22,13.1,22,14.8z M15.2,2.7c0.7,0,1.3,0.6,1.3,1.3S16,5.4,15.2,5.4S13.9,4.8,13.9,4
	S14.5,2.7,15.2,2.7z M4.5,2.7c0.7,0,1.3,0.6,1.3,1.3S5.2,5.4,4.5,5.4S3.1,4.8,3.1,4S3.8,2.7,4.5,2.7z M4.5,13.4
	c0.7,0,1.3,0.6,1.3,1.3s-0.6,1.3-1.3,1.3s-1.3-0.6-1.3-1.3S3.8,13.4,4.5,13.4z M4.5,26.9c-0.7,0-1.3-0.6-1.3-1.3s0.6-1.3,1.3-1.3
	s1.3,0.6,1.3,1.3S5.2,26.9,4.5,26.9z M15.2,26.9c-0.7,0-1.3-0.6-1.3-1.3s0.6-1.3,1.3-1.3s1.3,0.6,1.3,1.3S16,26.9,15.2,26.9z
	 M26,26.9c-0.7,0-1.3-0.6-1.3-1.3s0.6-1.3,1.3-1.3s1.3,0.6,1.3,1.3S26.7,26.9,26,26.9z M26,16.1c-0.7,0-1.3-0.6-1.3-1.3
	s0.6-1.3,1.3-1.3s1.3,0.6,1.3,1.3S26.7,16.1,26,16.1z M17.9,14.8c0,1.5-1.2,2.7-2.7,2.7s-2.7-1.2-2.7-2.7c0-1.5,1.2-2.7,2.7-2.7
	S17.9,13.3,17.9,14.8z"/>
</svg>
