<?xml version="1.0" encoding="utf-8"?>
<!-- Generator: Adobe Illustrator 27.6.1, SVG Export Plug-In . SVG Version: 6.00 Build 0)  -->
<svg version="1.1" id="OBJECT" xmlns="http://www.w3.org/2000/svg" xmlns:xlink="http://www.w3.org/1999/xlink" x="0px" y="0px"
	 viewBox="0 0 30 30" style="enable-background:new 0 0 30 30;" xml:space="preserve">
<style type="text/css">
	.st0{fill:#FFFFFF;}
</style>
<g>
	<path class="st0" d="M15,30c-2,0-4-0.4-5.8-1.2c-1.8-0.8-3.4-1.8-4.8-3.2c-1.4-1.4-2.5-3-3.2-4.8C0.4,19,0,17,0,15
		c0-2,0.4-4,1.2-5.8C1.9,7.4,3,5.8,4.4,4.4c1.4-1.4,3-2.5,4.8-3.2C11,0.4,13,0,15,0c2,0,4,0.4,5.8,1.2c1.8,0.8,3.4,1.8,4.8,3.2
		c1.4,1.4,2.5,3,3.2,4.8C29.6,11,30,13,30,15c0,2-0.4,4-1.2,5.8c-0.8,1.8-1.8,3.4-3.2,4.8c-1.4,1.4-3,2.5-4.8,3.2
		C19,29.6,17,30,15,30z M15,3C8.4,3,3,8.4,3,15c0,6.6,5.4,12,12,12c6.6,0,12-5.4,12-12C27,8.4,21.6,3,15,3z"/>
</g>
<g>
	<path class="st0" d="M15,7.5c0.8,0,1.5,0.7,1.5,1.5c0,0.8-0.7,1.5-1.5,1.5c-0.8,0-1.5-0.7-1.5-1.5C13.5,8.2,14.2,7.5,15,7.5z"/>
</g>
<g>
	<rect x="13.5" y="13.5" class="st0" width="3" height="9"/>
</g>
<g id="Layer_7">
	<path class="st0" d="M-88.8,246.9h-104.5c-2.2,0-4,1.8-4,4v70.9c0,5.2,4.2,9.4,9.4,9.4l0,0h34.8v20.1h-22.8c-2.2,0-4,1.8-4,4
		s1.8,4,4,4h69.7c2.2,0,4-1.8,4-4s-1.8-4-4-4H-129v-20.1h34.8c5.2,0,9.4-4.2,9.4-9.4l0,0v-70.9C-84.8,248.7-86.6,246.9-88.8,246.9z
		 M-92.8,254.9v49.1c-1.5-0.6-3.1-0.9-4.7-0.9h-86.9c-1.6,0-3.2,0.3-4.7,0.9v-49.1H-92.8z M-137,351.4h-8v-20.1h8V351.4z
		 M-133,323.3h-51.5c-2.6,0-4.7-2.1-4.7-4.7l0,0v-2.6c0-2.6,2.1-4.7,4.7-4.7l0,0h86.9c2.6,0,4.7,2.1,4.7,4.7l0,0v2.6
		c0,2.6-2.1,4.7-4.7,4.7l0,0H-133z"/>
	<path class="st0" d="M-168.2,285.7l23.2-13.9v14.7c0,1.5,0.9,2.9,2.2,3.6c0.6,0.3,1.2,0.4,1.8,0.4c0.9,0,1.7-0.3,2.4-0.8l25.1-19
		c1.8-1.3,2.1-3.9,0.7-5.6c-0.5-0.7-1.3-1.2-2.2-1.4l-6-1.6c-2.1-0.6-4.3,0.7-4.9,2.9c-0.4,1.4,0.1,3,1.2,4l-12.4,9.5v-13.8
		c0-1.4-0.8-2.8-2-3.5c-1.2-0.7-2.8-0.7-4,0l-29.3,17.6c-1.8,1.3-2.2,3.8-0.9,5.6c1.1,1.5,3.2,2.1,4.9,1.3H-168.2z"/>
</g>
</svg>
