<?xml version="1.0" encoding="utf-8"?>
<!-- Generator: Adobe Illustrator 27.6.1, SVG Export Plug-In . SVG Version: 6.00 Build 0)  -->
<svg version="1.1" id="OBJECT" xmlns="http://www.w3.org/2000/svg" xmlns:xlink="http://www.w3.org/1999/xlink" x="0px" y="0px"
	 viewBox="0 0 30 30" style="enable-background:new 0 0 30 30;" xml:space="preserve">
<style type="text/css">
	.st0{fill:#FFFFFF;}
</style>
<g>
	<path class="st0" d="M14.8,30c-0.4,0-0.8-0.1-1-0.4c-0.6-0.6-0.6-1.5,0-2.1l3-3c0.1-0.1,0.1-0.1,0.2-0.2c-0.4-0.7-0.6-1.6-0.6-2.5
		c0-2.8,2.3-5.2,5.2-5.2s5.2,2.3,5.2,5.2S24.3,27,21.4,27c-0.9,0-1.7-0.2-2.5-0.6c0,0.1-0.1,0.1-0.2,0.2l-3,3
		C15.5,29.9,15.2,30,14.8,30z M21.4,19.7c-1.2,0-2.2,1-2.2,2.2s1,2.2,2.2,2.2s2.2-1,2.2-2.2S22.6,19.7,21.4,19.7z M5.2,30
		C2.3,30,0,27.7,0,24.8c0-2.8,2.3-5.2,5.2-5.2c0.9,0,1.7,0.2,2.5,0.6c0-0.1,0.1-0.1,0.2-0.2L19.6,8.3c0.1-0.1,0.1-0.1,0.2-0.2
		c-0.4-0.7-0.6-1.6-0.6-2.5c0-2.8,2.3-5.2,5.2-5.2c2.8,0,5.2,2.3,5.2,5.2c0,2.8-2.3,5.2-5.2,5.2c-0.9,0-1.7-0.2-2.5-0.6
		c0,0.1-0.1,0.1-0.2,0.2L9.9,22.2c-0.1,0.1-0.1,0.1-0.2,0.2c0.4,0.7,0.6,1.6,0.6,2.5C10.4,27.7,8,30,5.2,30z M5.2,22.6
		c-1.2,0-2.2,1-2.2,2.2C3,26.1,4,27,5.2,27c1.2,0,2.2-1,2.2-2.2C7.4,23.6,6.4,22.6,5.2,22.6z M24.4,3.4c-1.2,0-2.2,1-2.2,2.2
		c0,1.2,1,2.2,2.2,2.2c1.2,0,2.2-1,2.2-2.2C26.6,4.4,25.6,3.4,24.4,3.4z M8.1,13.8C5.3,13.8,3,11.4,3,8.6s2.3-5.2,5.2-5.2
		c0.9,0,1.7,0.2,2.5,0.6c0-0.1,0.1-0.1,0.2-0.2l3-3c0.6-0.6,1.5-0.6,2.1,0c0.6,0.6,0.6,1.5,0,2.1l-3,3c-0.1,0.1-0.1,0.1-0.2,0.2
		c0.4,0.7,0.6,1.6,0.6,2.5C13.3,11.4,11,13.8,8.1,13.8z M8.1,6.4c-1.2,0-2.2,1-2.2,2.2s1,2.2,2.2,2.2s2.2-1,2.2-2.2S9.4,6.4,8.1,6.4
		z"/>
</g>
</svg>
