<?xml version="1.0" encoding="utf-8"?>
<!-- Generator: Adobe Illustrator 26.0.0, SVG Export Plug-In . SVG Version: 6.00 Build 0)  -->
<svg version="1.1" id="Layer_1" xmlns="http://www.w3.org/2000/svg" xmlns:xlink="http://www.w3.org/1999/xlink" x="0px" y="0px"
	 viewBox="0 0 35 35" style="enable-background:new 0 0 35 35;" xml:space="preserve">
<style type="text/css">
	.st0{fill:#FFFFFF;}
</style>
<g>
	<path class="st0" d="M17.5,35c-0.7,0-1.4-0.4-1.6-1.1l-3.6-9c-0.3-0.7-0.4-1-0.5-1.2c-0.1-0.2-0.2-0.3-0.4-0.4
		c-0.2-0.1-0.6-0.3-1.2-0.5l-9-3.6C0.4,18.9,0,18.2,0,17.5s0.4-1.4,1.1-1.6l9-3.6c0.7-0.3,1-0.4,1.2-0.5c0.2-0.1,0.3-0.2,0.4-0.4
		c0.1-0.2,0.3-0.6,0.5-1.2l3.6-9C16.1,0.4,16.8,0,17.5,0s1.4,0.4,1.6,1.1l3.6,9c0.3,0.7,0.4,1,0.5,1.2c0.1,0.2,0.2,0.3,0.4,0.4
		c0.2,0.1,0.6,0.3,1.2,0.5l9,3.6c0.7,0.3,1.1,0.9,1.1,1.6s-0.4,1.4-1.1,1.6l-9,3.6c-0.7,0.3-1,0.4-1.2,0.5c-0.2,0.1-0.3,0.2-0.4,0.4
		c-0.1,0.2-0.3,0.6-0.5,1.2l-3.6,9C18.9,34.6,18.2,35,17.5,35z M6.5,17.5l4.9,1.9c0.9,0.4,1.5,0.6,2,1c0.5,0.3,0.9,0.7,1.2,1.2
		c0.4,0.5,0.6,1.1,1,2l1.9,4.9l1.9-4.9c0.4-0.9,0.6-1.5,1-2c0.3-0.5,0.7-0.9,1.2-1.2c0.5-0.4,1.1-0.6,2-0.9l4.9-1.9l-4.9-1.9
		c-0.9-0.4-1.5-0.6-2-1c-0.5-0.3-0.9-0.7-1.2-1.2c-0.4-0.5-0.6-1.1-0.9-2l-1.9-4.9l-1.9,4.9c-0.4,0.9-0.6,1.5-1,2
		c-0.3,0.5-0.7,0.9-1.2,1.2c-0.5,0.4-1.1,0.6-2,1L6.5,17.5z"/>
</g>
</svg>
