<?xml version="1.0" encoding="utf-8"?>
<!-- Generator: Adobe Illustrator 26.0.0, SVG Export Plug-In . SVG Version: 6.00 Build 0)  -->
<svg version="1.1" id="Layer_1" xmlns="http://www.w3.org/2000/svg" xmlns:xlink="http://www.w3.org/1999/xlink" x="0px" y="0px"
	 viewBox="0 0 35 35" style="enable-background:new 0 0 35 35;" xml:space="preserve">
<style type="text/css">
	.st0{fill:#FFFFFF;}
</style>
<path class="st0" d="M4.1,34.2c-1.1-2-1.2-5.1-0.5-7.3c0.1-0.4,0.3-0.7,0.5-1c0.2,0.3,0.3,0.7,0.5,1C5.3,29.1,5.3,32.1,4.1,34.2
	L4.1,34.2z"/>
<path class="st0" d="M4.1,9.3C2.9,7.3,2.8,4.2,3.6,2c0.1-0.4,0.3-0.7,0.5-1c0.2,0.3,0.4,0.7,0.5,1C5.4,4.2,5.4,7.3,4.1,9.3L4.1,9.3z
	"/>
<path class="st0" d="M0,5.1c2-1.2,5.1-1.3,7.3-0.5c0.4,0.1,0.7,0.3,1,0.5C8,5.4,7.6,5.5,7.3,5.6C5.1,6.4,2,6.4,0,5.1L0,5.1z"/>
<path class="st0" d="M0,30c2-1.1,5.1-1.2,7.3-0.5c0.4,0.1,0.7,0.3,1,0.5c-0.3,0.2-0.7,0.3-1,0.5C5.1,31.2,2,31.1,0,30L0,30z"/>
<g>
	<path class="st0" d="M18.2,34.2c-0.7,0-1.3-0.4-1.5-1.1l-2.9-7.5c-0.4-1.1-0.6-1.6-0.9-2c-0.2-0.3-0.5-0.6-0.8-0.8
		c-0.3-0.2-0.9-0.5-2-0.9l-7.5-2.9c-0.6-0.2-1.1-0.9-1.1-1.5s0.4-1.3,1.1-1.5l7.5-2.9c1.1-0.4,1.6-0.6,2-0.9
		c0.3-0.2,0.6-0.5,0.8-0.8c0.2-0.3,0.5-0.9,0.9-2l2.9-7.5C16.9,1.4,17.6,1,18.2,1c0.7,0,1.3,0.4,1.5,1.1l2.9,7.5
		c0.4,1.1,0.6,1.6,0.9,2c0.2,0.3,0.5,0.6,0.8,0.8c0.3,0.2,0.9,0.5,2,0.9l7.5,2.9c0.6,0.2,1.1,0.9,1.1,1.5s-0.4,1.3-1.1,1.5L26.3,22
		c-1.1,0.4-1.6,0.6-2,0.9c-0.3,0.2-0.6,0.5-0.8,0.8c-0.2,0.3-0.5,0.9-0.9,2l-2.9,7.5C19.5,33.7,18.9,34.2,18.2,34.2z M7.9,17.6
		l3.5,1.3c1.3,0.5,2,0.8,2.7,1.3c0.6,0.4,1.1,1,1.6,1.6c0.5,0.7,0.8,1.4,1.3,2.7l1.3,3.5l1.3-3.5c0.5-1.3,0.8-2,1.3-2.7
		c0.4-0.6,1-1.1,1.6-1.6c0.7-0.5,1.4-0.8,2.7-1.3l3.5-1.3l-3.5-1.3c-1.3-0.5-2-0.8-2.7-1.3c-0.6-0.4-1.1-1-1.6-1.6
		c-0.5-0.7-0.8-1.4-1.3-2.7l-1.3-3.5l-1.3,3.5c-0.5,1.3-0.8,2-1.3,2.7c-0.4,0.6-1,1.1-1.6,1.6c-0.7,0.5-1.4,0.8-2.7,1.3L7.9,17.6z"
		/>
</g>
</svg>
